<mxfile host="app.diagrams.net" agent="Mozilla/5.0 (Windows NT 10.0; Win64; x64) AppleWebKit/537.36 (KHTML, like Gecko) Chrome/131.0.0.0 Safari/537.36" version="25.0.3">
  <diagram name="Page-1" id="PZAWUMKmdaGKJP3UjzOx">
    <mxGraphModel dx="2261" dy="720" grid="1" gridSize="10" guides="1" tooltips="1" connect="1" arrows="1" fold="1" page="1" pageScale="1" pageWidth="827" pageHeight="1169" math="0" shadow="0">
      <root>
        <mxCell id="0" />
        <mxCell id="1" parent="0" />
        <mxCell id="tvFaoIQTmSW6H6ujx-xS-1" value="2nd Test" style="whiteSpace=wrap;strokeWidth=8;fillColor=#FAE5C7;strokeColor=#0F8B8D;fontStyle=1;fontSize=18;fontFamily=Helvetica;labelBackgroundColor=none;fontColor=#143642;" vertex="1" parent="1">
          <mxGeometry x="922" y="653" width="129" height="49" as="geometry" />
        </mxCell>
        <mxCell id="tvFaoIQTmSW6H6ujx-xS-2" value="Photo Upload with following given Instruction&#xa;" style="whiteSpace=wrap;strokeWidth=8;fillColor=#FAE5C7;strokeColor=#0F8B8D;fontStyle=1;fontSize=18;fontFamily=Helvetica;labelBackgroundColor=none;fontColor=#143642;" vertex="1" parent="1">
          <mxGeometry x="858" y="752" width="256" height="66" as="geometry" />
        </mxCell>
        <mxCell id="tvFaoIQTmSW6H6ujx-xS-3" value="Gateway: Does it satisfy?" style="rhombus;strokeWidth=8;whiteSpace=wrap;fillColor=#FAE5C7;strokeColor=#0F8B8D;fontStyle=1;fontSize=18;fontFamily=Helvetica;labelBackgroundColor=none;fontColor=#143642;" vertex="1" parent="1">
          <mxGeometry x="798" y="868" width="241" height="241" as="geometry" />
        </mxCell>
        <mxCell id="tvFaoIQTmSW6H6ujx-xS-4" value="Threshold Selection" style="whiteSpace=wrap;strokeWidth=8;fillColor=#FAE5C7;strokeColor=#0F8B8D;fontStyle=1;fontSize=18;fontFamily=Helvetica;labelBackgroundColor=none;fontColor=#143642;" vertex="1" parent="1">
          <mxGeometry x="813" y="1159" width="210" height="49" as="geometry" />
        </mxCell>
        <mxCell id="tvFaoIQTmSW6H6ujx-xS-5" value="Hirschberg Reflex Light Detected?" style="rhombus;strokeWidth=8;whiteSpace=wrap;fillColor=#FAE5C7;strokeColor=#0F8B8D;fontStyle=1;fontSize=18;fontFamily=Helvetica;labelBackgroundColor=none;fontColor=#143642;" vertex="1" parent="1">
          <mxGeometry x="883" y="1258" width="245" height="245" as="geometry" />
        </mxCell>
        <mxCell id="tvFaoIQTmSW6H6ujx-xS-6" value="Pupil Equal Division - Both vertical and horizontal" style="whiteSpace=wrap;strokeWidth=8;fillColor=#FAE5C7;strokeColor=#0F8B8D;fontStyle=1;fontSize=18;fontFamily=Helvetica;labelBackgroundColor=none;fontColor=#143642;" vertex="1" parent="1">
          <mxGeometry x="877" y="1553" width="259" height="66" as="geometry" />
        </mxCell>
        <mxCell id="tvFaoIQTmSW6H6ujx-xS-7" value="Projection into both vertical and horizontal" style="whiteSpace=wrap;strokeWidth=8;fillColor=#FAE5C7;strokeColor=#0F8B8D;fontStyle=1;fontSize=18;fontFamily=Helvetica;labelBackgroundColor=none;fontColor=#143642;" vertex="1" parent="1">
          <mxGeometry x="890" y="1670" width="231" height="66" as="geometry" />
        </mxCell>
        <mxCell id="tvFaoIQTmSW6H6ujx-xS-8" value="Degree of Squint" style="whiteSpace=wrap;strokeWidth=8;fillColor=#FAE5C7;strokeColor=#0F8B8D;fontStyle=1;fontSize=18;fontFamily=Helvetica;labelBackgroundColor=none;fontColor=#143642;" vertex="1" parent="1">
          <mxGeometry x="700" y="1770" width="190" height="49" as="geometry" />
        </mxCell>
        <mxCell id="tvFaoIQTmSW6H6ujx-xS-9" value="Type of Squint" style="whiteSpace=wrap;strokeWidth=8;fillColor=#FAE5C7;strokeColor=#0F8B8D;fontStyle=1;fontSize=18;fontFamily=Helvetica;labelBackgroundColor=none;fontColor=#143642;" vertex="1" parent="1">
          <mxGeometry x="1056" y="1786" width="173" height="49" as="geometry" />
        </mxCell>
        <mxCell id="tvFaoIQTmSW6H6ujx-xS-10" value="RRC_X - RPC_X &gt;= 0 &gt; Threshold?" style="rhombus;strokeWidth=8;whiteSpace=wrap;fillColor=#FAE5C7;strokeColor=#0F8B8D;fontStyle=1;fontSize=18;fontFamily=Helvetica;labelBackgroundColor=none;fontColor=#143642;" vertex="1" parent="1">
          <mxGeometry x="407" y="1885" width="244" height="244" as="geometry" />
        </mxCell>
        <mxCell id="tvFaoIQTmSW6H6ujx-xS-11" value="Horizontal Squint" style="whiteSpace=wrap;strokeWidth=8;fillColor=#FAE5C7;strokeColor=#0F8B8D;fontStyle=1;fontSize=18;fontFamily=Helvetica;labelBackgroundColor=none;fontColor=#143642;" vertex="1" parent="1">
          <mxGeometry x="432" y="2179" width="194" height="49" as="geometry" />
        </mxCell>
        <mxCell id="tvFaoIQTmSW6H6ujx-xS-12" value="RRC_Y - RPC_Y &gt;= 0 &gt; Threshold?" style="rhombus;strokeWidth=8;whiteSpace=wrap;fillColor=#FAE5C7;strokeColor=#0F8B8D;fontStyle=1;fontSize=18;fontFamily=Helvetica;labelBackgroundColor=none;fontColor=#143642;" vertex="1" parent="1">
          <mxGeometry x="1635" y="1885" width="244" height="244" as="geometry" />
        </mxCell>
        <mxCell id="tvFaoIQTmSW6H6ujx-xS-13" value="Vertical Squint" style="whiteSpace=wrap;strokeWidth=8;fillColor=#FAE5C7;strokeColor=#0F8B8D;fontStyle=1;fontSize=18;fontFamily=Helvetica;labelBackgroundColor=none;fontColor=#143642;" vertex="1" parent="1">
          <mxGeometry x="1670" y="2179" width="173" height="49" as="geometry" />
        </mxCell>
        <mxCell id="tvFaoIQTmSW6H6ujx-xS-14" value="RPC_X -RRC_X  &gt;= 0 &gt; Threshold?" style="rhombus;strokeWidth=8;whiteSpace=wrap;fillColor=#FAE5C7;strokeColor=#0F8B8D;fontStyle=1;fontSize=18;fontFamily=Helvetica;labelBackgroundColor=none;fontColor=#143642;" vertex="1" parent="1">
          <mxGeometry x="-40" y="2291" width="244" height="244" as="geometry" />
        </mxCell>
        <mxCell id="tvFaoIQTmSW6H6ujx-xS-15" value="Right Esotropia" style="whiteSpace=wrap;strokeWidth=8;fillColor=#FAE5C7;strokeColor=#0F8B8D;fontStyle=1;fontSize=18;fontFamily=Helvetica;labelBackgroundColor=none;fontColor=#143642;" vertex="1" parent="1">
          <mxGeometry x="-8" y="2599" width="180" height="49" as="geometry" />
        </mxCell>
        <mxCell id="tvFaoIQTmSW6H6ujx-xS-16" value="RPC_X-LRC_X   &gt;= 0 &gt; Threshold?" style="rhombus;strokeWidth=8;whiteSpace=wrap;fillColor=#FAE5C7;strokeColor=#0F8B8D;fontStyle=1;fontSize=18;fontFamily=Helvetica;labelBackgroundColor=none;fontColor=#143642;" vertex="1" parent="1">
          <mxGeometry x="254" y="2292" width="243" height="243" as="geometry" />
        </mxCell>
        <mxCell id="tvFaoIQTmSW6H6ujx-xS-17" value="Left Esotropia" style="whiteSpace=wrap;strokeWidth=8;fillColor=#FAE5C7;strokeColor=#0F8B8D;fontStyle=1;fontSize=18;fontFamily=Helvetica;labelBackgroundColor=none;fontColor=#143642;" vertex="1" parent="1">
          <mxGeometry x="290" y="2599" width="171" height="49" as="geometry" />
        </mxCell>
        <mxCell id="tvFaoIQTmSW6H6ujx-xS-18" value="RRC_X - RPC_X &gt;= 0 &amp;&gt;Threshold?" style="rhombus;strokeWidth=8;whiteSpace=wrap;fillColor=#FAE5C7;strokeColor=#0F8B8D;fontStyle=1;fontSize=18;fontFamily=Helvetica;labelBackgroundColor=none;fontColor=#143642;" vertex="1" parent="1">
          <mxGeometry x="546" y="2277" width="271" height="271" as="geometry" />
        </mxCell>
        <mxCell id="tvFaoIQTmSW6H6ujx-xS-19" value="Right Exotropia" style="whiteSpace=wrap;strokeWidth=8;fillColor=#FAE5C7;strokeColor=#0F8B8D;fontStyle=1;fontSize=18;fontFamily=Helvetica;labelBackgroundColor=none;fontColor=#143642;" vertex="1" parent="1">
          <mxGeometry x="592" y="2599" width="181" height="49" as="geometry" />
        </mxCell>
        <mxCell id="tvFaoIQTmSW6H6ujx-xS-20" value="LRC_X - LPC_X &gt;= 0 &gt; Threshold?" style="rhombus;strokeWidth=8;whiteSpace=wrap;fillColor=#FAE5C7;strokeColor=#0F8B8D;fontStyle=1;fontSize=18;fontFamily=Helvetica;labelBackgroundColor=none;fontColor=#143642;" vertex="1" parent="1">
          <mxGeometry x="868" y="2278" width="270" height="270" as="geometry" />
        </mxCell>
        <mxCell id="tvFaoIQTmSW6H6ujx-xS-21" value="Left Exotropia" style="whiteSpace=wrap;strokeWidth=8;fillColor=#FAE5C7;strokeColor=#0F8B8D;fontStyle=1;fontSize=18;fontFamily=Helvetica;labelBackgroundColor=none;fontColor=#143642;" vertex="1" parent="1">
          <mxGeometry x="917" y="2599" width="173" height="49" as="geometry" />
        </mxCell>
        <mxCell id="tvFaoIQTmSW6H6ujx-xS-22" value="RRC_Y - RPC_Y &gt;= 0 &gt; Threshold?" style="rhombus;strokeWidth=8;whiteSpace=wrap;fillColor=#FAE5C7;strokeColor=#0F8B8D;fontStyle=1;fontSize=18;fontFamily=Helvetica;labelBackgroundColor=none;fontColor=#143642;" vertex="1" parent="1">
          <mxGeometry x="1188" y="2291" width="244" height="244" as="geometry" />
        </mxCell>
        <mxCell id="tvFaoIQTmSW6H6ujx-xS-23" value="Right Hypotropia" style="whiteSpace=wrap;strokeWidth=8;fillColor=#FAE5C7;strokeColor=#0F8B8D;fontStyle=1;fontSize=18;fontFamily=Helvetica;labelBackgroundColor=none;fontColor=#143642;" vertex="1" parent="1">
          <mxGeometry x="1211" y="2599" width="198" height="49" as="geometry" />
        </mxCell>
        <mxCell id="tvFaoIQTmSW6H6ujx-xS-24" value="LRC_Y - LPC_Y &gt;= 0 &gt; Threshold?" style="rhombus;strokeWidth=8;whiteSpace=wrap;fillColor=#FAE5C7;strokeColor=#0F8B8D;fontStyle=1;fontSize=18;fontFamily=Helvetica;labelBackgroundColor=none;fontColor=#143642;" vertex="1" parent="1">
          <mxGeometry x="1482" y="2292" width="243" height="243" as="geometry" />
        </mxCell>
        <mxCell id="tvFaoIQTmSW6H6ujx-xS-25" value="Left Hypotropia" style="whiteSpace=wrap;strokeWidth=8;fillColor=#FAE5C7;strokeColor=#0F8B8D;fontStyle=1;fontSize=18;fontFamily=Helvetica;labelBackgroundColor=none;fontColor=#143642;" vertex="1" parent="1">
          <mxGeometry x="1512" y="2599" width="183" height="49" as="geometry" />
        </mxCell>
        <mxCell id="tvFaoIQTmSW6H6ujx-xS-26" value="RRC_Y - RPC_Y &lt;= 0 &lt; -Threshold?" style="rhombus;strokeWidth=8;whiteSpace=wrap;fillColor=#FAE5C7;strokeColor=#0F8B8D;fontStyle=1;fontSize=18;fontFamily=Helvetica;labelBackgroundColor=none;fontColor=#143642;" vertex="1" parent="1">
          <mxGeometry x="1774" y="2277" width="271" height="271" as="geometry" />
        </mxCell>
        <mxCell id="tvFaoIQTmSW6H6ujx-xS-27" value="Right Hypertropia" style="whiteSpace=wrap;strokeWidth=8;fillColor=#FAE5C7;strokeColor=#0F8B8D;fontStyle=1;fontSize=18;fontFamily=Helvetica;labelBackgroundColor=none;fontColor=#143642;" vertex="1" parent="1">
          <mxGeometry x="1811" y="2599" width="198" height="49" as="geometry" />
        </mxCell>
        <mxCell id="tvFaoIQTmSW6H6ujx-xS-28" value="LRC_Y - LPC_Y &lt;= 0 &lt; -Threshold?" style="rhombus;strokeWidth=8;whiteSpace=wrap;fillColor=#FAE5C7;strokeColor=#0F8B8D;fontStyle=1;fontSize=18;fontFamily=Helvetica;labelBackgroundColor=none;fontColor=#143642;" vertex="1" parent="1">
          <mxGeometry x="2096" y="2278" width="270" height="270" as="geometry" />
        </mxCell>
        <mxCell id="tvFaoIQTmSW6H6ujx-xS-29" value="Left Hypetropia" style="whiteSpace=wrap;strokeWidth=8;fillColor=#FAE5C7;strokeColor=#0F8B8D;fontStyle=1;fontSize=18;fontFamily=Helvetica;labelBackgroundColor=none;fontColor=#143642;" vertex="1" parent="1">
          <mxGeometry x="2140" y="2599" width="183" height="49" as="geometry" />
        </mxCell>
        <mxCell id="tvFaoIQTmSW6H6ujx-xS-30" value="" style="curved=1;startArrow=none;endArrow=block;exitX=0.5;exitY=0.99;entryX=0.5;entryY=0;rounded=0;strokeColor=#A8201A;strokeWidth=2;fontStyle=1;fontSize=18;fontFamily=Helvetica;labelBackgroundColor=none;fontColor=default;" edge="1" parent="1" source="tvFaoIQTmSW6H6ujx-xS-1" target="tvFaoIQTmSW6H6ujx-xS-2">
          <mxGeometry relative="1" as="geometry">
            <Array as="points" />
          </mxGeometry>
        </mxCell>
        <mxCell id="tvFaoIQTmSW6H6ujx-xS-31" value="" style="curved=1;startArrow=none;endArrow=block;exitX=0.33;exitY=1;entryX=0.46;entryY=0;rounded=0;strokeColor=#A8201A;strokeWidth=2;fontStyle=1;fontSize=18;fontFamily=Helvetica;labelBackgroundColor=none;fontColor=default;" edge="1" parent="1" source="tvFaoIQTmSW6H6ujx-xS-2" target="tvFaoIQTmSW6H6ujx-xS-3">
          <mxGeometry relative="1" as="geometry">
            <Array as="points">
              <mxPoint x="908" y="843" />
            </Array>
          </mxGeometry>
        </mxCell>
        <mxCell id="tvFaoIQTmSW6H6ujx-xS-32" value="" style="curved=1;startArrow=none;endArrow=block;exitX=0.73;exitY=0;entryX=0.5;entryY=1;rounded=0;strokeColor=#A8201A;strokeWidth=2;fontStyle=1;fontSize=18;fontFamily=Helvetica;labelBackgroundColor=none;fontColor=default;" edge="1" parent="1" source="tvFaoIQTmSW6H6ujx-xS-3" target="tvFaoIQTmSW6H6ujx-xS-2">
          <mxGeometry relative="1" as="geometry">
            <Array as="points">
              <mxPoint x="986" y="843" />
            </Array>
          </mxGeometry>
        </mxCell>
        <mxCell id="tvFaoIQTmSW6H6ujx-xS-33" value="" style="curved=1;startArrow=none;endArrow=block;exitX=0.5;exitY=1;entryX=0.5;entryY=0.01;rounded=0;strokeColor=#A8201A;strokeWidth=2;fontStyle=1;fontSize=18;fontFamily=Helvetica;labelBackgroundColor=none;fontColor=default;" edge="1" parent="1" source="tvFaoIQTmSW6H6ujx-xS-3" target="tvFaoIQTmSW6H6ujx-xS-4">
          <mxGeometry relative="1" as="geometry">
            <Array as="points" />
          </mxGeometry>
        </mxCell>
        <mxCell id="tvFaoIQTmSW6H6ujx-xS-34" value="" style="curved=1;startArrow=none;endArrow=block;exitX=0.48;exitY=1;entryX=0.17;entryY=0;rounded=0;strokeColor=#A8201A;strokeWidth=2;fontStyle=1;fontSize=18;fontFamily=Helvetica;labelBackgroundColor=none;fontColor=default;" edge="1" parent="1" source="tvFaoIQTmSW6H6ujx-xS-4" target="tvFaoIQTmSW6H6ujx-xS-5">
          <mxGeometry relative="1" as="geometry">
            <Array as="points">
              <mxPoint x="908" y="1233" />
            </Array>
          </mxGeometry>
        </mxCell>
        <mxCell id="tvFaoIQTmSW6H6ujx-xS-35" value="" style="curved=1;startArrow=none;endArrow=block;exitX=0.43;exitY=0;entryX=0.66;entryY=1;rounded=0;strokeColor=#A8201A;strokeWidth=2;fontStyle=1;fontSize=18;fontFamily=Helvetica;labelBackgroundColor=none;fontColor=default;" edge="1" parent="1" source="tvFaoIQTmSW6H6ujx-xS-5" target="tvFaoIQTmSW6H6ujx-xS-4">
          <mxGeometry relative="1" as="geometry">
            <Array as="points">
              <mxPoint x="986" y="1233" />
            </Array>
          </mxGeometry>
        </mxCell>
        <mxCell id="tvFaoIQTmSW6H6ujx-xS-36" value="" style="curved=1;startArrow=none;endArrow=block;exitX=0.73;exitY=0;entryX=0.7;entryY=1;rounded=0;strokeColor=#A8201A;strokeWidth=2;fontStyle=1;fontSize=18;fontFamily=Helvetica;labelBackgroundColor=none;fontColor=default;" edge="1" parent="1" source="tvFaoIQTmSW6H6ujx-xS-5" target="tvFaoIQTmSW6H6ujx-xS-2">
          <mxGeometry relative="1" as="geometry">
            <Array as="points">
              <mxPoint x="1074" y="1233" />
              <mxPoint x="1074" y="843" />
            </Array>
          </mxGeometry>
        </mxCell>
        <mxCell id="tvFaoIQTmSW6H6ujx-xS-37" value="" style="curved=1;startArrow=none;endArrow=block;exitX=0.5;exitY=1;entryX=0.5;entryY=0;rounded=0;strokeColor=#A8201A;strokeWidth=2;fontStyle=1;fontSize=18;fontFamily=Helvetica;labelBackgroundColor=none;fontColor=default;" edge="1" parent="1" source="tvFaoIQTmSW6H6ujx-xS-5" target="tvFaoIQTmSW6H6ujx-xS-6">
          <mxGeometry relative="1" as="geometry">
            <Array as="points" />
          </mxGeometry>
        </mxCell>
        <mxCell id="tvFaoIQTmSW6H6ujx-xS-38" value="" style="curved=1;startArrow=none;endArrow=block;exitX=0.5;exitY=1.01;entryX=0.5;entryY=-0.01;rounded=0;strokeColor=#A8201A;strokeWidth=2;fontStyle=1;fontSize=18;fontFamily=Helvetica;labelBackgroundColor=none;fontColor=default;" edge="1" parent="1" source="tvFaoIQTmSW6H6ujx-xS-6" target="tvFaoIQTmSW6H6ujx-xS-7">
          <mxGeometry relative="1" as="geometry">
            <Array as="points" />
          </mxGeometry>
        </mxCell>
        <mxCell id="tvFaoIQTmSW6H6ujx-xS-39" value="" style="curved=1;startArrow=none;endArrow=block;exitX=0.22;exitY=1;entryX=0.5;entryY=0;rounded=0;strokeColor=#A8201A;strokeWidth=2;fontStyle=1;fontSize=18;fontFamily=Helvetica;labelBackgroundColor=none;fontColor=default;" edge="1" parent="1" source="tvFaoIQTmSW6H6ujx-xS-7" target="tvFaoIQTmSW6H6ujx-xS-8">
          <mxGeometry relative="1" as="geometry">
            <Array as="points">
              <mxPoint x="890" y="1761" />
            </Array>
          </mxGeometry>
        </mxCell>
        <mxCell id="tvFaoIQTmSW6H6ujx-xS-40" value="" style="curved=1;startArrow=none;endArrow=block;exitX=0.84;exitY=1;entryX=0.5;entryY=0;rounded=0;strokeColor=#A8201A;strokeWidth=2;fontStyle=1;fontSize=18;fontFamily=Helvetica;labelBackgroundColor=none;fontColor=default;" edge="1" parent="1" source="tvFaoIQTmSW6H6ujx-xS-7" target="tvFaoIQTmSW6H6ujx-xS-9">
          <mxGeometry relative="1" as="geometry">
            <Array as="points">
              <mxPoint x="1143" y="1761" />
            </Array>
          </mxGeometry>
        </mxCell>
        <mxCell id="tvFaoIQTmSW6H6ujx-xS-41" value="" style="curved=1;startArrow=none;endArrow=block;exitX=0;exitY=0.64;entryX=0.5;entryY=0;rounded=0;strokeColor=#A8201A;strokeWidth=2;fontStyle=1;fontSize=18;fontFamily=Helvetica;labelBackgroundColor=none;fontColor=default;" edge="1" parent="1" source="tvFaoIQTmSW6H6ujx-xS-9" target="tvFaoIQTmSW6H6ujx-xS-10">
          <mxGeometry relative="1" as="geometry">
            <Array as="points">
              <mxPoint x="529" y="1860" />
            </Array>
          </mxGeometry>
        </mxCell>
        <mxCell id="tvFaoIQTmSW6H6ujx-xS-42" value="" style="curved=1;startArrow=none;endArrow=block;exitX=0.5;exitY=1;entryX=0.5;entryY=-0.01;rounded=0;strokeColor=#A8201A;strokeWidth=2;fontStyle=1;fontSize=18;fontFamily=Helvetica;labelBackgroundColor=none;fontColor=default;" edge="1" parent="1" source="tvFaoIQTmSW6H6ujx-xS-10" target="tvFaoIQTmSW6H6ujx-xS-11">
          <mxGeometry relative="1" as="geometry">
            <Array as="points" />
          </mxGeometry>
        </mxCell>
        <mxCell id="tvFaoIQTmSW6H6ujx-xS-43" value="" style="curved=1;startArrow=none;endArrow=block;exitX=1;exitY=0.64;entryX=0.5;entryY=0;rounded=0;strokeColor=#A8201A;strokeWidth=2;fontStyle=1;fontSize=18;fontFamily=Helvetica;labelBackgroundColor=none;fontColor=default;" edge="1" parent="1" source="tvFaoIQTmSW6H6ujx-xS-9" target="tvFaoIQTmSW6H6ujx-xS-12">
          <mxGeometry relative="1" as="geometry">
            <Array as="points">
              <mxPoint x="1757" y="1860" />
            </Array>
          </mxGeometry>
        </mxCell>
        <mxCell id="tvFaoIQTmSW6H6ujx-xS-44" value="" style="curved=1;startArrow=none;endArrow=block;exitX=0.5;exitY=1;entryX=0.5;entryY=-0.01;rounded=0;strokeColor=#A8201A;strokeWidth=2;fontStyle=1;fontSize=18;fontFamily=Helvetica;labelBackgroundColor=none;fontColor=default;" edge="1" parent="1" source="tvFaoIQTmSW6H6ujx-xS-12" target="tvFaoIQTmSW6H6ujx-xS-13">
          <mxGeometry relative="1" as="geometry">
            <Array as="points" />
          </mxGeometry>
        </mxCell>
        <mxCell id="tvFaoIQTmSW6H6ujx-xS-45" value="" style="curved=1;startArrow=none;endArrow=block;exitX=0;exitY=0.71;entryX=0.5;entryY=0;rounded=0;strokeColor=#A8201A;strokeWidth=2;fontStyle=1;fontSize=18;fontFamily=Helvetica;labelBackgroundColor=none;fontColor=default;" edge="1" parent="1" source="tvFaoIQTmSW6H6ujx-xS-11" target="tvFaoIQTmSW6H6ujx-xS-14">
          <mxGeometry relative="1" as="geometry">
            <Array as="points">
              <mxPoint x="82" y="2252" />
            </Array>
          </mxGeometry>
        </mxCell>
        <mxCell id="tvFaoIQTmSW6H6ujx-xS-46" value="" style="curved=1;startArrow=none;endArrow=block;exitX=0.5;exitY=1;entryX=0.5;entryY=-0.01;rounded=0;strokeColor=#A8201A;strokeWidth=2;fontStyle=1;fontSize=18;fontFamily=Helvetica;labelBackgroundColor=none;fontColor=default;" edge="1" parent="1" source="tvFaoIQTmSW6H6ujx-xS-14" target="tvFaoIQTmSW6H6ujx-xS-15">
          <mxGeometry relative="1" as="geometry">
            <Array as="points" />
          </mxGeometry>
        </mxCell>
        <mxCell id="tvFaoIQTmSW6H6ujx-xS-47" value="" style="curved=1;startArrow=none;endArrow=block;exitX=0.11;exitY=0.98;entryX=0.5;entryY=0;rounded=0;strokeColor=#A8201A;strokeWidth=2;fontStyle=1;fontSize=18;fontFamily=Helvetica;labelBackgroundColor=none;fontColor=default;" edge="1" parent="1" source="tvFaoIQTmSW6H6ujx-xS-11" target="tvFaoIQTmSW6H6ujx-xS-16">
          <mxGeometry relative="1" as="geometry">
            <Array as="points">
              <mxPoint x="375" y="2252" />
            </Array>
          </mxGeometry>
        </mxCell>
        <mxCell id="tvFaoIQTmSW6H6ujx-xS-48" value="" style="curved=1;startArrow=none;endArrow=block;exitX=0.5;exitY=1;entryX=0.5;entryY=-0.01;rounded=0;strokeColor=#A8201A;strokeWidth=2;fontStyle=1;fontSize=18;fontFamily=Helvetica;labelBackgroundColor=none;fontColor=default;" edge="1" parent="1" source="tvFaoIQTmSW6H6ujx-xS-16" target="tvFaoIQTmSW6H6ujx-xS-17">
          <mxGeometry relative="1" as="geometry">
            <Array as="points" />
          </mxGeometry>
        </mxCell>
        <mxCell id="tvFaoIQTmSW6H6ujx-xS-49" value="" style="curved=1;startArrow=none;endArrow=block;exitX=0.89;exitY=0.98;entryX=0.5;entryY=0;rounded=0;strokeColor=#A8201A;strokeWidth=2;fontStyle=1;fontSize=18;fontFamily=Helvetica;labelBackgroundColor=none;fontColor=default;" edge="1" parent="1" source="tvFaoIQTmSW6H6ujx-xS-11" target="tvFaoIQTmSW6H6ujx-xS-18">
          <mxGeometry relative="1" as="geometry">
            <Array as="points">
              <mxPoint x="682" y="2252" />
            </Array>
          </mxGeometry>
        </mxCell>
        <mxCell id="tvFaoIQTmSW6H6ujx-xS-50" value="" style="curved=1;startArrow=none;endArrow=block;exitX=0.5;exitY=1;entryX=0.5;entryY=-0.01;rounded=0;strokeColor=#A8201A;strokeWidth=2;fontStyle=1;fontSize=18;fontFamily=Helvetica;labelBackgroundColor=none;fontColor=default;" edge="1" parent="1" source="tvFaoIQTmSW6H6ujx-xS-18" target="tvFaoIQTmSW6H6ujx-xS-19">
          <mxGeometry relative="1" as="geometry">
            <Array as="points" />
          </mxGeometry>
        </mxCell>
        <mxCell id="tvFaoIQTmSW6H6ujx-xS-51" value="" style="curved=1;startArrow=none;endArrow=block;exitX=1;exitY=0.69;entryX=0.5;entryY=0;rounded=0;strokeColor=#A8201A;strokeWidth=2;fontStyle=1;fontSize=18;fontFamily=Helvetica;labelBackgroundColor=none;fontColor=default;" edge="1" parent="1" source="tvFaoIQTmSW6H6ujx-xS-11" target="tvFaoIQTmSW6H6ujx-xS-20">
          <mxGeometry relative="1" as="geometry">
            <Array as="points">
              <mxPoint x="1003" y="2252" />
            </Array>
          </mxGeometry>
        </mxCell>
        <mxCell id="tvFaoIQTmSW6H6ujx-xS-52" value="" style="curved=1;startArrow=none;endArrow=block;exitX=0.5;exitY=1;entryX=0.5;entryY=-0.01;rounded=0;strokeColor=#A8201A;strokeWidth=2;fontStyle=1;fontSize=18;fontFamily=Helvetica;labelBackgroundColor=none;fontColor=default;" edge="1" parent="1" source="tvFaoIQTmSW6H6ujx-xS-20" target="tvFaoIQTmSW6H6ujx-xS-21">
          <mxGeometry relative="1" as="geometry">
            <Array as="points" />
          </mxGeometry>
        </mxCell>
        <mxCell id="tvFaoIQTmSW6H6ujx-xS-53" value="" style="curved=1;startArrow=none;endArrow=block;exitX=0;exitY=0.68;entryX=0.5;entryY=0;rounded=0;strokeColor=#A8201A;strokeWidth=2;fontStyle=1;fontSize=18;fontFamily=Helvetica;labelBackgroundColor=none;fontColor=default;" edge="1" parent="1" source="tvFaoIQTmSW6H6ujx-xS-13" target="tvFaoIQTmSW6H6ujx-xS-22">
          <mxGeometry relative="1" as="geometry">
            <Array as="points">
              <mxPoint x="1310" y="2252" />
            </Array>
          </mxGeometry>
        </mxCell>
        <mxCell id="tvFaoIQTmSW6H6ujx-xS-54" value="" style="curved=1;startArrow=none;endArrow=block;exitX=0.5;exitY=1;entryX=0.5;entryY=-0.01;rounded=0;strokeColor=#A8201A;strokeWidth=2;fontStyle=1;fontSize=18;fontFamily=Helvetica;labelBackgroundColor=none;fontColor=default;" edge="1" parent="1" source="tvFaoIQTmSW6H6ujx-xS-22" target="tvFaoIQTmSW6H6ujx-xS-23">
          <mxGeometry relative="1" as="geometry">
            <Array as="points" />
          </mxGeometry>
        </mxCell>
        <mxCell id="tvFaoIQTmSW6H6ujx-xS-55" value="" style="curved=1;startArrow=none;endArrow=block;exitX=0.06;exitY=0.98;entryX=0.5;entryY=0;rounded=0;strokeColor=#A8201A;strokeWidth=2;fontStyle=1;fontSize=18;fontFamily=Helvetica;labelBackgroundColor=none;fontColor=default;" edge="1" parent="1" source="tvFaoIQTmSW6H6ujx-xS-13" target="tvFaoIQTmSW6H6ujx-xS-24">
          <mxGeometry relative="1" as="geometry">
            <Array as="points">
              <mxPoint x="1603" y="2252" />
            </Array>
          </mxGeometry>
        </mxCell>
        <mxCell id="tvFaoIQTmSW6H6ujx-xS-56" value="" style="curved=1;startArrow=none;endArrow=block;exitX=0.5;exitY=1;entryX=0.5;entryY=-0.01;rounded=0;strokeColor=#A8201A;strokeWidth=2;fontStyle=1;fontSize=18;fontFamily=Helvetica;labelBackgroundColor=none;fontColor=default;" edge="1" parent="1" source="tvFaoIQTmSW6H6ujx-xS-24" target="tvFaoIQTmSW6H6ujx-xS-25">
          <mxGeometry relative="1" as="geometry">
            <Array as="points" />
          </mxGeometry>
        </mxCell>
        <mxCell id="tvFaoIQTmSW6H6ujx-xS-57" value="" style="curved=1;startArrow=none;endArrow=block;exitX=0.94;exitY=0.98;entryX=0.5;entryY=0;rounded=0;strokeColor=#A8201A;strokeWidth=2;fontStyle=1;fontSize=18;fontFamily=Helvetica;labelBackgroundColor=none;fontColor=default;" edge="1" parent="1" source="tvFaoIQTmSW6H6ujx-xS-13" target="tvFaoIQTmSW6H6ujx-xS-26">
          <mxGeometry relative="1" as="geometry">
            <Array as="points">
              <mxPoint x="1910" y="2252" />
            </Array>
          </mxGeometry>
        </mxCell>
        <mxCell id="tvFaoIQTmSW6H6ujx-xS-58" value="" style="curved=1;startArrow=none;endArrow=block;exitX=0.5;exitY=1;entryX=0.5;entryY=-0.01;rounded=0;strokeColor=#A8201A;strokeWidth=2;fontStyle=1;fontSize=18;fontFamily=Helvetica;labelBackgroundColor=none;fontColor=default;" edge="1" parent="1" source="tvFaoIQTmSW6H6ujx-xS-26" target="tvFaoIQTmSW6H6ujx-xS-27">
          <mxGeometry relative="1" as="geometry">
            <Array as="points" />
          </mxGeometry>
        </mxCell>
        <mxCell id="tvFaoIQTmSW6H6ujx-xS-59" value="" style="curved=1;startArrow=none;endArrow=block;exitX=1;exitY=0.67;entryX=0.5;entryY=0;rounded=0;strokeColor=#A8201A;strokeWidth=2;fontStyle=1;fontSize=18;fontFamily=Helvetica;labelBackgroundColor=none;fontColor=default;" edge="1" parent="1" source="tvFaoIQTmSW6H6ujx-xS-13" target="tvFaoIQTmSW6H6ujx-xS-28">
          <mxGeometry relative="1" as="geometry">
            <Array as="points">
              <mxPoint x="2231" y="2252" />
            </Array>
          </mxGeometry>
        </mxCell>
        <mxCell id="tvFaoIQTmSW6H6ujx-xS-60" value="" style="curved=1;startArrow=none;endArrow=block;exitX=0.5;exitY=1;entryX=0.5;entryY=-0.01;rounded=0;strokeColor=#A8201A;strokeWidth=2;fontStyle=1;fontSize=18;fontFamily=Helvetica;labelBackgroundColor=none;fontColor=default;" edge="1" parent="1" source="tvFaoIQTmSW6H6ujx-xS-28" target="tvFaoIQTmSW6H6ujx-xS-29">
          <mxGeometry relative="1" as="geometry">
            <Array as="points" />
          </mxGeometry>
        </mxCell>
      </root>
    </mxGraphModel>
  </diagram>
</mxfile>
